<svg viewBox="0 0 760 320" xmlns="http://www.w3.org/2000/svg" font-family="Google Sans, Helvetica, Arial, sans-serif">
  <defs>
    <linearGradient id="bg2" x1="0" y1="0" x2="1" y2="1">
      <stop offset="0%" stop-color="#17161c"/>
      <stop offset="100%" stop-color="#0f0e12"/>
    </linearGradient>
  </defs>
  <rect x="0" y="0" width="760" height="320" rx="24" fill="url(#bg2)"/>

  <!-- Layer 1: App -->
  <g transform="translate(40,26)">
    <rect width="680" height="70" rx="20" fill="#1c1b21"/>
    <circle cx="42" cy="35" r="20" fill="#C6F24A"/>
    <path d="M34 35 h16 M42 27 v16" stroke="#131318" stroke-width="3" stroke-linecap="round"/>
    <text x="78" y="30" fill="#e4e1e6" font-size="15" font-weight="700">App SD Bind</text>
    <text x="78" y="50" fill="#8b8790" font-size="12">Jetpack Compose · explorador de carpetas · info de almacenamiento</text>
  </g>

  <path d="M380 96 v28" stroke="#4a4c37" stroke-width="3"/>
  <path d="M372 116 L380 128 L388 116" stroke="#4a4c37" stroke-width="3" fill="none" stroke-linecap="round" stroke-linejoin="round"/>

  <!-- Layer 2: Module -->
  <g transform="translate(40,132)">
    <rect width="680" height="70" rx="20" fill="#1c1b21"/>
    <circle cx="42" cy="35" r="20" fill="#EAF88E"/>
    <path d="M32 35 h20 M42 25 v20" stroke="#131318" stroke-width="3" stroke-linecap="round"/>
    <text x="78" y="30" fill="#e4e1e6" font-size="15" font-weight="700">Módulo KernelSU / KernelSU-Next</text>
    <text x="78" y="50" fill="#8b8790" font-size="12">scripts post-fs-data.sh · service.sh · WebUI de respaldo</text>
  </g>

  <path d="M380 202 v28" stroke="#4a4c37" stroke-width="3"/>
  <path d="M372 222 L380 234 L388 222" stroke="#4a4c37" stroke-width="3" fill="none" stroke-linecap="round" stroke-linejoin="round"/>

  <!-- Layer 3: Kernel -->
  <g transform="translate(40,238)">
    <rect width="680" height="60" rx="20" fill="#26252c"/>
    <circle cx="42" cy="30" r="17" fill="#5b5860"/>
    <text x="78" y="26" fill="#e4e1e6" font-size="15" font-weight="700">Kernel Linux</text>
    <text x="78" y="44" fill="#8b8790" font-size="12">mount namespace · bind mounts sobre /storage y /mnt/media_rw</text>
  </g>
</svg>
